<?xml version="1.0" ?><!DOCTYPE svg  PUBLIC '-//W3C//DTD SVG 1.1//EN'  'http://www.w3.org/Graphics/SVG/1.1/DTD/svg11.dtd'><svg id="Layer_1" style="enable-background:new 0 0 75 75;" version="1.1" viewBox="0 0 75 75" xml:space="preserve" xmlns="http://www.w3.org/2000/svg" xmlns:xlink="http://www.w3.org/1999/xlink"><style type="text/css">
	.st0{fill:#FFE100;}
	.st1{fill:#ED1C24;}
	.st2{fill:#F9A01B;}
	.st3{fill:#67923D;}
	.st4{fill:#9990C5;}
	.st5{fill:#406325;}
</style><g><path class="st0" d="M23.9,26.5c1.3,3.3,3.1,6.5,5.3,9.3c0.3,0.4,0.7,0.7,1.1,1c0.6,0.4,1.1,0.3,1.4-0.4c0.2-0.7,0.5-2.1,0.5-2.8   c0-1.9,0-3.2-0.1-5.1c-0.1-1.2-0.5-2.3-2.3-2.6c-0.6-0.1-0.6-0.6-0.2-1c0.7-0.9,1.8-1.1,2.9-1.2c1.8-0.1,3.6,0,5.5,0   c0.7,0,1.5,0.1,2.2,0.2c1,0.2,1.5,0.9,1.6,1.8c0.1,0.5,0.1,1,0.1,1.5c0,2.1-0.1,4.2-0.2,6.2c0,0.8,0,1.7,0.2,2.4   c0.2,1.1,1,1.4,1.8,0.6c1-1,1.8-2.2,2.7-3.3c1.5-2.1,2.6-4.4,3.5-6.8c0.5-1.2,0.9-1.5,2.2-1.5c2.5,0,5,0,7.5,0c0.4,0,0.9,0,1.3,0.2   c0.7,0.2,0.9,0.8,0.8,1.5c-0.4,1.6-1.3,3-2.2,4.4c-1.5,2.2-3.1,4.3-4.7,6.4c-0.2,0.3-0.4,0.6-0.5,0.9c-0.6,1.1-0.5,1.6,0.3,2.5   c1.4,1.4,2.8,2.7,4.1,4.1c1,1,1.8,2.2,2.6,3.4c1,1.5,0.4,2.9-1.4,3.2c-1.1,0.2-6.6,0-6.9,0c-1.5,0-2.8-0.5-3.8-1.5   c-1.2-1.1-2.2-2.3-3.3-3.5c-0.3-0.4-0.7-0.7-1.1-1c-0.9-0.7-1.8-0.5-2.2,0.5c-0.4,0.9-0.7,3.3-0.7,3.5c-0.1,1.1-0.8,1.8-2,1.8   c-3.5,0.2-6.9-0.2-10-1.9c-2.7-1.4-4.8-3.4-6.6-5.8c-2.9-3.7-5.3-7.9-7.4-12.1c-0.1-0.2-2.3-4.8-2.3-5c-0.2-0.7,0-1.4,0.6-1.6   c0.4-0.1,7.4,0,7.6,0C22.7,24.8,23.5,25.3,23.9,26.5z"/><g><g><g><g><g><g><path class="st0" d="M37.5,73.5c-9.7,0-19.5-1.7-29.1-5.1L7,67.9l-0.5-1.3c-6.8-19.3-6.8-38.9,0-58.2L7,7.1l1.3-0.5         C18,3.2,27.8,1.5,37.5,1.5S57,3.2,66.6,6.6L68,7.1l0.5,1.3c6.8,19.3,6.8,38.9,0,58.2L68,67.9l-1.3,0.5         C57,71.8,47.2,73.5,37.5,73.5z M11.7,63.3c8.6,2.9,17.3,4.3,25.8,4.3c8.6,0,17.2-1.4,25.8-4.3c5.7-17.1,5.7-34.5,0-51.6         c-8.6-2.9-17.3-4.3-25.8-4.3c-8.6,0-17.2,1.4-25.8,4.3C6,28.8,6,46.2,11.7,63.3z"/></g></g></g></g></g></g></g></svg>